# xmcd
#
# Track frame offsets: 
#        150
#        2892
#        11977
#        24695
#        33537
#        42587
#        51252
#        53857
#        56672
#        66930
#        79167
#        84417
#        94815
#        105772
#        108317
#        111037
#        120492
#        133735
#        146962
#        159717
#        162280
#        164957
#        173257
#        185247
#        197560
#        209112
#        213310
#        215897
#
# Disc length: 3220 seconds
#
# Revision: 0
# Processed by: cddbd v1.5.2PL0 Copyright (c) Steve Scherf et al.
# Submitted via: ExactAudioCopy v0.99pb4
#
DISCID=a70c921c
DTITLE=Jim Reeves - Radio Days Volume 1 - Disc 1
DYEAR=2001
DGENRE=Country
TTITLE0=Beaumont Rag - Intro
TTITLE1=Roly Poly
TTITLE2=Am I Losing You
TTITLE3=Portuguese Washerwoman (Chet Atkins)
TTITLE4=The Wind-Up
TTITLE5=Yondre Comes A Sucker
TTITLE6=Beaumont Rag - Outro
TTITLE7=Beaumont Rag - Intro
TTITLE8=Breeze
TTITLE9=According To My Heart
TTITLE10=Raggin' The Keys (Del Wood)
TTITLE11=Beyond A Shadow Of A Doubt
TTITLE12=An Evening Prayer
TTITLE13=Beaumont Rag - Outro
TTITLE14=Beaumont Rag - Intro
TTITLE15=Oklahoma Hills
TTITLE16=Am I Losing You
TTITLE17=I didn't Know The Gun Was Loaded (Jean Shepard)
TTITLE18=You Old Loveletters
TTITLE19=Beaumont Rag - Outro
TTITLE20=Beaumont Rag - Intro
TTITLE21=According To My Heart
TTITLE22=Anna Marie
TTITLE23=Border Baby (Benny Martin)
TTITLE24=I Love You More
TTITLE25=Waiting For A Train
TTITLE26=Beaumont Rag - Outro
TTITLE27=Jim Reeves Interview With Don Davis
EXTD=
EXTT0=
EXTT1=
EXTT2=
EXTT3=
EXTT4=
EXTT5=
EXTT6=
EXTT7=
EXTT8=
EXTT9=
EXTT10=
EXTT11=
EXTT12=
EXTT13=
EXTT14=
EXTT15=
EXTT16=
EXTT17=
EXTT18=
EXTT19=
EXTT20=
EXTT21=
EXTT22=
EXTT23=
EXTT24=
EXTT25=
EXTT26=
EXTT27=
PLAYORDER=
